<?xml version="1.0" encoding="utf-8"?>
<svg viewBox="0 0 283 316" xmlns="http://www.w3.org/2000/svg" xmlns:bx="https://boxy-svg.com">
  <path d="M 231.878 345.882 L 252.86 357.996 L 252.86 382.224 L 231.878 394.338 L 210.896 382.224 L 210.896 357.996 Z" style="stroke: rgb(239, 239, 239); fill: rgb(253, 88, 152); stroke-width: 3px;" transform="matrix(-0.003934, -0.999992, 0.999992, -0.003934, -304.505066, 300.785458)" id="c_fd5898" bx:shape="n-gon 231.878 370.11 24.228 24.228 6 0 1@eda0ca74"/>
  <path d="M 231.878 345.882 L 252.86 357.996 L 252.86 382.224 L 231.878 394.338 L 210.896 382.224 L 210.896 357.996 Z" style="stroke: rgb(239, 239, 239); fill: rgb(253, 159, 217); stroke-width: 3px;" transform="matrix(-0.003934, -0.999992, 0.999992, -0.003934, -265.885987, 323.460324)" id="c_fd9fd9" bx:shape="n-gon 231.878 370.11 24.228 24.228 6 0 1@eda0ca74"/>
  <path d="M 231.878 345.882 L 252.86 357.996 L 252.86 382.224 L 231.878 394.338 L 210.896 382.224 L 210.896 357.996 Z" style="stroke: rgb(239, 239, 239); fill: rgb(250, 92, 227); stroke-width: 3px;" transform="matrix(-0.003934, -0.999992, 0.999992, -0.003934, -265.885529, 278.429685)" id="c_fa5ce3" bx:shape="n-gon 231.878 370.11 24.228 24.228 6 0 1@eda0ca74"/>
  <path d="M 231.878 345.882 L 252.86 357.996 L 252.86 382.224 L 231.878 394.338 L 210.896 382.224 L 210.896 357.996 Z" style="stroke: rgb(239, 239, 239); fill: rgb(229, 133, 245); stroke-width: 3px;" transform="matrix(-0.003934, -0.999992, 0.999992, -0.003934, -227.345337, 301.785886)" id="c_e585f5" bx:shape="n-gon 231.878 370.11 24.228 24.228 6 0 1@eda0ca74"/>
  <path d="M 231.878 345.882 L 252.86 357.996 L 252.86 382.224 L 231.878 394.338 L 210.896 382.224 L 210.896 357.996 Z" style="stroke: rgb(239, 239, 239); fill: rgb(231, 210, 249); stroke-width: 3px;" transform="matrix(-0.003934, -0.999992, 0.999992, -0.003934, -227.345887, 346.941037)" id="c_e7d2f9" bx:shape="n-gon 231.878 370.11 24.228 24.228 6 0 1@eda0ca74"/>
  <path d="M 231.878 345.882 L 252.86 357.996 L 252.86 382.224 L 231.878 394.338 L 210.896 382.224 L 210.896 357.996 Z" style="stroke: rgb(239, 239, 239); fill: rgb(252, 142, 151); stroke-width: 3px;" transform="matrix(-0.003934, -0.999992, 0.999992, -0.003934, -304.505616, 345.940122)" id="c_fc8e97" bx:shape="n-gon 231.878 370.11 24.228 24.228 6 0 1@eda0ca74"/>
  <path d="M 231.878 345.882 L 252.86 357.996 L 252.86 382.224 L 231.878 394.338 L 210.896 382.224 L 210.896 357.996 Z" style="stroke: rgb(239, 239, 239); fill: rgb(254, 224, 226); stroke-width: 3px;" transform="matrix(-0.003934, -0.999992, 0.999992, -0.003934, -265.887543, 368.590817)" id="c_fee0e2" bx:shape="n-gon 231.878 370.11 24.228 24.228 6 0 1@eda0ca74"/>
  <path d="M 231.878 345.882 L 252.86 357.996 L 252.86 382.224 L 231.878 394.338 L 210.896 382.224 L 210.896 357.996 Z" style="stroke: rgb(239, 239, 239); fill: rgb(252, 59, 248); stroke-width: 3px;" transform="matrix(-0.003934, -0.999992, 0.999992, -0.003934, -227.345887, 257.410275)" id="c_fc3bf8" bx:shape="n-gon 231.878 370.11 24.228 24.228 6 0 1@eda0ca74"/>
  <path d="M 231.878 345.882 L 252.86 357.996 L 252.86 382.224 L 231.878 394.338 L 210.896 382.224 L 210.896 357.996 Z" style="stroke: rgb(239, 239, 239); fill: rgb(176, 106, 249); stroke-width: 3px;" transform="matrix(-0.003934, -0.999992, 0.999992, -0.003934, -188.820771, 279.430173)" id="c_b06af9" bx:shape="n-gon 231.878 370.11 24.228 24.228 6 0 1@eda0ca74"/>
  <path d="M 231.878 345.882 L 252.86 357.996 L 252.86 382.224 L 231.878 394.338 L 210.896 382.224 L 210.896 357.996 Z" style="stroke: rgb(239, 239, 239); fill: rgb(154, 152, 247); stroke-width: 3px;" transform="matrix(-0.003934, -0.999992, 0.999992, -0.003934, -188.82132, 324.46069)" id="c_9a98f7" bx:shape="n-gon 231.878 370.11 24.228 24.228 6 0 1@eda0ca74"/>
  <path d="M 231.878 345.882 L 252.86 357.996 L 252.86 382.224 L 231.878 394.338 L 210.896 382.224 L 210.896 357.996 Z" style="stroke: rgb(239, 239, 239); fill: rgb(253, 253, 253); stroke-width: 3px;" transform="matrix(-0.003934, -0.999992, 0.999992, -0.003934, -227.346985, 391.823117)" id="c_fdfdfd" bx:shape="n-gon 231.878 370.11 24.228 24.228 6 0 1@eda0ca74"/>
  <path d="M 231.878 345.882 L 252.86 357.996 L 252.86 382.224 L 231.878 394.338 L 210.896 382.224 L 210.896 357.996 Z" style="stroke: rgb(239, 239, 239); fill: rgb(173, 195, 251); stroke-width: 3px;" transform="matrix(-0.003934, -0.999992, 0.999992, -0.003934, -188.820771, 369.613767)" id="c_adc3fb" bx:shape="n-gon 231.878 370.11 24.228 24.228 6 0 1@eda0ca74"/>
  <path d="M 231.878 345.882 L 252.86 357.996 L 252.86 382.224 L 231.878 394.338 L 210.896 382.224 L 210.896 357.996 Z" style="stroke: rgb(239, 239, 239); fill: rgb(98, 123, 249); stroke-width: 3px;" transform="matrix(-0.003934, -0.999992, 0.999992, -0.003934, -149.885834, 302.786191)" id="c_627bf9" bx:shape="n-gon 231.878 370.11 24.228 24.228 6 0 1@eda0ca74"/>
  <path d="M 231.878 345.882 L 252.86 357.996 L 252.86 382.224 L 231.878 394.338 L 210.896 382.224 L 210.896 357.996 Z" style="stroke: rgb(239, 239, 239); fill: rgb(95, 139, 248); stroke-width: 3px;" transform="matrix(-0.003934, -0.999992, 0.999992, -0.003934, -149.885102, 347.425229)" id="c_5f8bf8" bx:shape="n-gon 231.878 370.11 24.228 24.228 6 0 1@eda0ca74"/>
  <path d="M 231.878 345.882 L 252.86 357.996 L 252.86 382.224 L 231.878 394.338 L 210.896 382.224 L 210.896 357.996 Z" style="stroke: rgb(239, 239, 239); fill: rgb(123, 184, 249); stroke-width: 3px;" transform="matrix(-0.003934, -0.999992, 0.999992, -0.003934, -150.885285, 391.822019)" id="c_7bb8f9" bx:shape="n-gon 231.878 370.11 24.228 24.228 6 0 1@eda0ca74"/>
  <path d="M 231.878 345.882 L 252.86 357.996 L 252.86 382.224 L 231.878 394.338 L 210.896 382.224 L 210.896 357.996 Z" style="stroke: rgb(239, 239, 239); fill: rgb(202, 237, 246); stroke-width: 3px;" transform="matrix(-0.003934, -0.999992, 0.999992, -0.003934, -188.820862, 414.768308)" id="c_caedf6" bx:shape="n-gon 231.878 370.11 24.228 24.228 6 0 1@eda0ca74"/>
  <path d="M 231.878 345.882 L 252.86 357.996 L 252.86 382.224 L 231.878 394.338 L 210.896 382.224 L 210.896 357.996 Z" style="stroke: rgb(239, 239, 239); fill: rgb(225, 253, 224); stroke-width: 3px;" transform="matrix(-0.003934, -0.999992, 0.999992, -0.003934, -227.345978, 436.546445)" id="c_e1fde0" bx:shape="n-gon 231.878 370.11 24.228 24.228 6 0 1@eda0ca74"/>
  <path d="M 231.878 345.882 L 252.86 357.996 L 252.86 382.224 L 231.878 394.338 L 210.896 382.224 L 210.896 357.996 Z" style="stroke: rgb(239, 239, 239); fill: rgb(253, 245, 219); stroke-width: 3px;" transform="matrix(-0.003934, -0.999992, 0.999992, -0.003934, -265.88562, 413.768002)" id="c_fdf5db" bx:shape="n-gon 231.878 370.11 24.228 24.228 6 0 1@eda0ca74"/>
  <path d="M 231.878 345.882 L 252.86 357.996 L 252.86 382.224 L 231.878 394.338 L 210.896 382.224 L 210.896 357.996 Z" style="stroke: rgb(239, 239, 239); fill: rgb(253, 209, 162); stroke-width: 3px;" transform="matrix(-0.003934, -0.999992, 0.999992, -0.003934, -304.505524, 390.82153)" id="c_fdd1a2" bx:shape="n-gon 231.878 370.11 24.228 24.228 6 0 1@eda0ca74"/>
  <path d="M 231.878 345.882 L 252.86 357.996 L 252.86 382.224 L 231.878 394.338 L 210.896 382.224 L 210.896 357.996 Z" style="stroke: rgb(239, 239, 239); fill: rgb(56, 252, 60); stroke-width: 3px;" transform="matrix(-0.003934, -0.999992, 0.999992, -0.003934, -227.345887, 526.168942)" id="c_38fc3c" bx:shape="n-gon 231.878 370.11 24.228 24.228 6 0 1@eda0ca74"/>
  <path d="M 231.878 345.882 L 252.86 357.996 L 252.86 382.224 L 231.878 394.338 L 210.896 382.224 L 210.896 357.996 Z" style="stroke: rgb(239, 239, 239); fill: rgb(149, 252, 152); stroke-width: 3px;" transform="matrix(-0.003934, -0.999992, 0.999992, -0.003934, -227.345246, 481.014218)" id="c_95fc98" bx:shape="n-gon 231.878 370.11 24.228 24.228 6 0 1@eda0ca74"/>
  <path d="M 231.878 345.882 L 252.86 357.996 L 252.86 382.224 L 231.878 394.338 L 210.896 382.224 L 210.896 357.996 Z" style="stroke: rgb(239, 239, 239); fill: rgb(159, 251, 218); stroke-width: 3px;" transform="matrix(-0.003934, -0.999992, 0.999992, -0.003934, -188.821595, 458.983823)" id="c_9ffbda" bx:shape="n-gon 231.878 370.11 24.228 24.228 6 0 1@eda0ca74"/>
  <path d="M 231.878 345.882 L 252.86 357.996 L 252.86 382.224 L 231.878 394.338 L 210.896 382.224 L 210.896 357.996 Z" style="stroke: rgb(239, 239, 239); fill: rgb(94, 252, 152); stroke-width: 3px;" transform="matrix(-0.003934, -0.999992, 0.999992, -0.003934, -188.821961, 503.962918)" id="c_5efc98" bx:shape="n-gon 231.878 370.11 24.228 24.228 6 0 1@eda0ca74"/>
  <path d="M 231.878 345.882 L 252.86 357.996 L 252.86 382.224 L 231.878 394.338 L 210.896 382.224 L 210.896 357.996 Z" style="stroke: rgb(239, 239, 239); fill: rgb(153, 243, 96); stroke-width: 3px;" transform="matrix(-0.003934, -0.999992, 0.999992, -0.003934, -265.885804, 503.962369)" id="c_99f360" bx:shape="n-gon 231.878 370.11 24.228 24.228 6 0 1@eda0ca74"/>
  <path d="M 231.878 345.882 L 252.86 357.996 L 252.86 382.224 L 231.878 394.338 L 210.896 382.224 L 210.896 357.996 Z" style="stroke: rgb(239, 239, 239); fill: rgb(219, 246, 162); stroke-width: 3px;" transform="matrix(-0.003934, -0.999992, 0.999992, -0.003934, -265.885712, 458.983395)" id="c_dbf6a2" bx:shape="n-gon 231.878 370.11 24.228 24.228 6 0 1@eda0ca74"/>
  <path d="M 231.878 345.882 L 252.86 357.996 L 252.86 382.224 L 231.878 394.338 L 210.896 382.224 L 210.896 357.996 Z" style="stroke: rgb(239, 239, 239); fill: rgb(231, 233, 96); stroke-width: 3px;" transform="matrix(-0.003934, -0.999992, 0.999992, -0.003934, -303.506806, 480.014035)" id="c_e7e960" bx:shape="n-gon 231.878 370.11 24.228 24.228 6 0 1@eda0ca74"/>
  <path d="M 231.878 345.882 L 252.86 357.996 L 252.86 382.224 L 231.878 394.338 L 210.896 382.224 L 210.896 357.996 Z" style="stroke: rgb(239, 239, 239); fill: rgb(94, 253, 226); stroke-width: 3px;" transform="matrix(-0.003934, -0.999992, 0.999992, -0.003934, -149.885285, 481.01434)" id="c_5efde2" bx:shape="n-gon 231.878 370.11 24.228 24.228 6 0 1@eda0ca74"/>
  <path d="M 231.878 345.882 L 252.86 357.996 L 252.86 382.224 L 231.878 394.338 L 210.896 382.224 L 210.896 357.996 Z" style="stroke: rgb(239, 239, 239); fill: rgb(130, 238, 247); stroke-width: 3px;" transform="matrix(-0.003934, -0.999992, 0.999992, -0.003934, -149.885285, 436.546018)" id="c_82eef7" bx:shape="n-gon 231.878 370.11 24.228 24.228 6 0 1@eda0ca74"/>
  <path d="M 231.878 345.882 L 252.86 357.996 L 252.86 382.224 L 231.878 394.338 L 210.896 382.224 L 210.896 357.996 Z" style="stroke: rgb(239, 239, 239); fill: rgb(250, 232, 138); stroke-width: 3px;" transform="matrix(-0.003934, -0.999992, 0.999992, -0.003934, -304.505432, 435.54559)" id="c_fae88a" bx:shape="n-gon 231.878 370.11 24.228 24.228 6 0 1@eda0ca74"/>
  <path d="M 231.878 345.882 L 252.86 357.996 L 252.86 382.224 L 231.878 394.338 L 210.896 382.224 L 210.896 357.996 Z" style="stroke: rgb(239, 239, 239); fill: rgb(254, 221, 62); stroke-width: 3px;" transform="matrix(-0.003934, -0.999992, 0.999992, -0.003934, -342.882172, 457.983395)" id="c_fedd3e" bx:shape="n-gon 231.878 370.11 24.228 24.228 6 0 1@eda0ca74"/>
  <path d="M 231.878 345.882 L 252.86 357.996 L 252.86 382.224 L 231.878 394.338 L 210.896 382.224 L 210.896 357.996 Z" style="stroke: rgb(239, 239, 239); fill: rgb(62, 251, 252); stroke-width: 3px;" transform="matrix(-0.003934, -0.999992, 0.999992, -0.003934, -111.992279, 459.760861)" id="c_3efbfc" bx:shape="n-gon 231.878 370.11 24.228 24.228 6 0 1@eda0ca74"/>
  <path d="M 231.878 345.882 L 252.86 357.996 L 252.86 382.224 L 231.878 394.338 L 210.896 382.224 L 210.896 357.996 Z" style="stroke: rgb(239, 239, 239); fill: rgb(89, 201, 249); stroke-width: 3px;" transform="matrix(-0.003934, -0.999992, 0.999992, -0.003934, -111.992371, 414.768857)" id="c_59c9f9" bx:shape="n-gon 231.878 370.11 24.228 24.228 6 0 1@eda0ca74"/>
  <path d="M 231.878 345.882 L 252.86 357.996 L 252.86 382.224 L 231.878 394.338 L 210.896 382.224 L 210.896 357.996 Z" style="stroke: rgb(239, 239, 239); fill: rgb(79, 144, 248); stroke-width: 3px;" transform="matrix(-0.003934, -0.999992, 0.999992, -0.003934, -111.992005, 369.45239)" id="c_4f90f8" bx:shape="n-gon 231.878 370.11 24.228 24.228 6 0 1@eda0ca74"/>
  <path d="M 231.878 345.882 L 252.86 357.996 L 252.86 382.224 L 231.878 394.338 L 210.896 382.224 L 210.896 357.996 Z" style="stroke: rgb(239, 239, 239); fill: rgb(254, 209, 96); stroke-width: 3px;" transform="matrix(-0.003934, -0.999992, 0.999992, -0.003934, -342.884919, 412.768002)" id="c_fed160" bx:shape="n-gon 231.878 370.11 24.228 24.228 6 0 1@eda0ca74"/>
  <path d="M 231.878 345.882 L 252.86 357.996 L 252.86 382.224 L 231.878 394.338 L 210.896 382.224 L 210.896 357.996 Z" style="stroke: rgb(239, 239, 239); fill: rgb(253, 141, 91); stroke-width: 3px;" transform="matrix(-0.003934, -0.999992, 0.999992, -0.003934, -342.884552, 367.613461)" id="c_fd8d5b" bx:shape="n-gon 231.878 370.11 24.228 24.228 6 0 1@eda0ca74"/>
  <path d="M 231.878 345.882 L 252.86 357.996 L 252.86 382.224 L 231.878 394.338 L 210.896 382.224 L 210.896 357.996 Z" style="stroke: rgb(239, 239, 239); fill: rgb(252, 45, 51); paint-order: fill; stroke-width: 3px;" transform="matrix(-0.003934, -0.999992, 0.999992, -0.003934, -342.881989, 322.907834)" id="c_fc2d33" bx:shape="n-gon 231.878 370.11 24.228 24.228 6 0 1@eda0ca74"/>
  <path d="M 231.878 345.882 L 252.86 357.996 L 252.86 382.224 L 231.878 394.338 L 210.896 382.224 L 210.896 357.996 Z" style="stroke: rgb(239, 239, 239); fill: rgb(48, 95, 248); stroke-width: 3px;" transform="matrix(-0.003934, -0.999992, 0.999992, -0.003934, -110.991822, 324.908261)" id="c_305ff8" bx:shape="n-gon 231.878 370.11 24.228 24.228 6 0 1@eda0ca74"/>
</svg>